<?xml version="1.0" encoding="UTF-8"?>
<svg id="Layer_1" data-name="Layer 1" xmlns="http://www.w3.org/2000/svg" viewBox="0 0 117.01 105.27">
  <defs>
    <style>
      .cls-1 {
        fill: #fff;
      }
    </style>
  </defs>
  <path class="cls-1" d="M41.26,38.76c-7.45-9.86-14.92-22.79-16.72-35.22-.07-.5-.41-1.74.43-1.62,3.61,12.96,11.83,25.48,21.08,35.18,2.47,2.59,8.22,8.29,11.08,9.99,8.16,4.87,20.03,8.03,28.56,12.64,7.8,4.22,10.3,10.01.63,13.96,3.09-4.24-2.59-7.39-5.79-9.29-10.29-6.11-23.05-10.61-33.83-16.46C29.2,38.45,5.64,21.78.25,1.47.12,1-.36-.11.51,0c5.78,12.05,15.27,21.98,26.02,29.77,1.41,1.02,14.08,9.56,14.72,8.98Z"/>
  <path class="cls-1" d="M114.53,77.6c.17.29-.43,1.14-.24,1.86.28,1.05,1.4,1.18,1.87,2.02.65,1.16.88,3,.84,4.34-.21.85-4.79,1.56-5.78,1.27l.97-.78c.76-3.17-6.02-5.8-8.52-6.28-1.47-.28-2.85,0-4.45-.35-1.07-.23-7.83-3.2-8.61-3.84-.58-.48-.6-.46,0-.94,1.19-.95,2.34-1.09,3.6-2.63,2.33-2.85,2.36-5.5-.25-8.14,8.37.97,13.52,7.32,19.16,12.7.4.38,1.34.67,1.4.77Z"/>
  <path class="cls-1" d="M73.36,67c-.78,3.32-3.79,5.92-4.27,9.37-2.18,15.68,17.95,19.69,29.55,21.37,1.01,1.33.33,2.72.12,4.19l-1.43-2.87-.49,4.78c-.99-.46-.19-2.19-.72-3.34-.26-.57-.98-1.1-1.67-.96,1.27,2.01,1.75,3.38.95,5.73l-1.22-3.32c-1.43-1.61-3.16-3.28-5.49-2.89-.51,2.56,1,3.91,2.4,5.74-.59.48-6.74-3-5.03-5.74.4-.64,2-.66,1.68-1.91-8.27-3.12-30.95-9.81-26.39-22.29,1.41-3.86,8.47-6.26,12.01-7.86Z"/>
  <path class="cls-1" d="M39.34,48.82c.11.89-.96.35-1.46.26-9.83-1.82-26.82-9.81-33.29-17.49-1.78-2.11-3.65-4.86-4.06-7.66,11.4,10.35,24.04,19.87,38.81,24.89Z"/>
  <path class="cls-1" d="M22.33,52.16c-4.41-.49-9.97-2.94-12.22-6.94-.1-.34.37-.3.72-.24,3.46.58,9.29,4.45,13.29,4.92l9.95,2.27c-3.75-.3-8.07.41-11.74,0Z"/>
  <path class="cls-1" d="M34.54,57.43l-6.53,1.85c-4.54,0-10.26.92-13.6-2.81,6.72.11,13.42,2.28,20.13.96Z"/>
  <path class="cls-1" d="M33.59,63.17c-.48.84-2.54,1.33-3.46,1.57-3.67.95-8.16,1.65-11.4-.86l14.85-.71Z"/>
</svg>